HIERARCHY
ROOT Hips
{
 OFFSET 0.000000 0.000000 0.000000
 CHANNELS 6 Xposition Yposition Zposition Yrotation Xrotation Zrotation
 JOINT Chest
 {
  OFFSET 0.000000 9.581000 -0.001100
  CHANNELS 3 Yrotation Xrotation Zrotation
  JOINT Chest2
  {
   OFFSET 0.000000 9.561100 0.002200
   CHANNELS 3 Yrotation Xrotation Zrotation
   JOINT Chest3
   {
    OFFSET 0.000000 9.521100 0.000000
    CHANNELS 3 Yrotation Xrotation Zrotation
    JOINT Chest4
    {
     OFFSET 0.000000 9.511400 0.000000
     CHANNELS 3 Yrotation Xrotation Zrotation
     JOINT Neck
     {
      OFFSET 0.000000 14.375100 0.000000
      CHANNELS 3 Yrotation Xrotation Zrotation
      JOINT Head
      {
       OFFSET 0.000000 8.901200 0.004600
       CHANNELS 3 Yrotation Xrotation Zrotation
       End Site
       {
        OFFSET 0.000000 16.962200 0.002400
       }
      }
     }
     JOINT RightCollar
     {
      OFFSET -2.920100 9.518800 0.000000
      CHANNELS 3 Yrotation Xrotation Zrotation
      JOINT RightShoulder
      {
       OFFSET -13.664500 0.000000 0.000000
       CHANNELS 3 Yrotation Xrotation Zrotation
       JOINT RightElbow
       {
        OFFSET 0.000000 -29.999200 0.000000
        CHANNELS 3 Yrotation Xrotation Zrotation
        JOINT RightWrist
        {
         OFFSET 0.000000 -24.253600 0.000000
         CHANNELS 3 Yrotation Xrotation Zrotation
         End Site
         {
          OFFSET 0.000000 -17.918900 0.000000
         }
        }
       }
      }
     }
     JOINT LeftCollar
     {
      OFFSET 2.920100 9.518800 0.000000
      CHANNELS 3 Yrotation Xrotation Zrotation
      JOINT LeftShoulder
      {
       OFFSET 13.664500 0.000000 0.000000
       CHANNELS 3 Yrotation Xrotation Zrotation
       JOINT LeftElbow
       {
        OFFSET 0.000000 -29.999200 0.000000
        CHANNELS 3 Yrotation Xrotation Zrotation
        JOINT LeftWrist
        {
         OFFSET 0.000000 -24.253600 0.000000
         CHANNELS 3 Yrotation Xrotation Zrotation
         End Site
         {
          OFFSET 0.000000 -17.918900 0.000000
         }
        }
       }
      }
     }
    }
   }
  }
 }
 JOINT RightHip
 {
  OFFSET -7.797300 0.005300 0.000500
  CHANNELS 3 Yrotation Xrotation Zrotation
  JOINT RightKnee
  {
   OFFSET 0.000000 -40.663400 -0.000500
   CHANNELS 3 Yrotation Xrotation Zrotation
   JOINT RightAnkle
   {
    OFFSET 0.000000 -39.523700 -0.000900
    CHANNELS 3 Yrotation Xrotation Zrotation
    JOINT RightToe
    {
     OFFSET 0.000000 -6.418000 14.485300
     CHANNELS 3 Yrotation Xrotation Zrotation
     End Site
     {
      OFFSET 0.000000 -1.465200 6.326400
     }
    }
   }
  }
 }
 JOINT LeftHip
 {
  OFFSET 7.797300 0.005300 0.000500
  CHANNELS 3 Yrotation Xrotation Zrotation
  JOINT LeftKnee
  {
   OFFSET 0.000000 -40.663400 -0.000500
   CHANNELS 3 Yrotation Xrotation Zrotation
   JOINT LeftAnkle
   {
    OFFSET 0.000000 -39.523700 -0.000900
    CHANNELS 3 Yrotation Xrotation Zrotation
    JOINT LeftToe
    {
     OFFSET 0.000000 -6.418000 14.485300
     CHANNELS 3 Yrotation Xrotation Zrotation
     End Site
     {
      OFFSET 0.000000 -1.465200 6.326400
     }
    }
   }
  }
 }
}
MOTION
Frames: 15
Frame Time: 0.008333
-15.128293 126.901911 22.102968 -168.502270 -48.422291 -5.374599 -2.519359 25.403434 -2.631663 -0.311726 4.125793 -0.299757 -0.527021 6.572104 -0.572166 -1.972413 20.980291 -2.082479 0.483886 21.064798 2.081004 0.001715 -3.306872 2.056520 3.354205 5.031483 3.444806 -29.850992 -23.346591 -12.747234 -149.397411 -49.686119 176.410300 4.408742 -4.090096 -14.850271 -7.823665 -0.773386 -1.459384 -11.915636 -10.979577 13.736911 70.508902 -60.311930 -116.729840 -6.414240 -28.208467 30.926461 -5.286557 -23.394327 -2.284323 -3.952674 77.975267 -2.184262 10.256592 -12.728044 2.220030 -0.000289 0.000715 -0.000128 6.606605 4.326241 3.624418 128.767640 65.031762 149.073755 5.416420 13.613352 3.743263 0.000980 -0.001977 0.000434
-15.128868 126.900567 22.103579 -168.515437 -48.406007 -5.342601 -2.519162 25.392210 -2.617607 -0.308395 4.124329 -0.295274 -0.535826 6.568147 -0.589233 -1.930349 20.982843 -1.983607 0.515088 21.029083 1.978159 0.087331 -3.348429 1.981494 3.305750 5.010413 3.406084 -29.562946 -23.242380 -12.950546 -149.277248 -49.742002 176.415372 4.504124 -4.055582 -14.632972 -7.864298 -0.823237 -1.496022 -11.934597 -10.963499 13.705134 70.494716 -60.379167 -116.722196 -6.420428 -28.188376 30.879107 -5.272216 -23.418148 -2.301928 -3.918904 77.994004 -2.150920 10.225914 -12.760766 2.214734 -0.000441 0.001760 -0.000196 6.607894 4.319627 3.600397 128.770891 65.032047 149.071109 5.417686 13.604796 3.730243 0.000795 0.001190 0.000352
-15.127845 126.900232 22.103255 -168.523449 -48.396861 -5.325091 -2.503991 25.397005 -2.550016 -0.318363 4.115990 -0.327620 -0.536285 6.563710 -0.582110 -1.917372 20.983446 -1.943611 0.557161 20.988517 1.908308 0.159359 -3.396749 1.910436 3.272160 4.992719 3.395367 -29.277428 -23.148071 -13.141742 -149.165613 -49.801213 176.418768 4.594350 -4.010297 -14.426328 -7.895017 -0.864872 -1.502532 -11.982985 -10.959542 13.728506 70.515024 -60.392881 -116.723052 -6.435660 -28.168108 30.839537 -5.262667 -23.433345 -2.311971 -3.915952 78.006777 -2.147542 10.221379 -12.782692 2.210398 -0.000120 0.001117 -0.000053 6.607413 4.322936 3.588241 128.764961 65.036502 149.058211 5.415084 13.590975 3.742671 -0.000046 0.000165 -0.000021
-15.126578 126.899534 22.103389 -168.529807 -48.385063 -5.309946 -2.499381 25.391720 -2.522919 -0.318297 4.114338 -0.323409 -0.532694 6.563164 -0.573615 -1.917900 20.979517 -1.923032 0.602905 20.945368 1.856361 0.220017 -3.447756 1.844045 3.252132 4.978515 3.396750 -28.997698 -23.064405 -13.319979 -149.056067 -49.863101 176.413567 4.682181 -3.957137 -14.230324 -7.919113 -0.900631 -1.490825 -12.020119 -10.959023 13.747748 70.536252 -60.406711 -116.727085 -6.447908 -28.148002 30.797384 -5.253924 -23.449045 -2.325244 -3.903895 78.015258 -2.134790 10.232558 -12.805310 2.206761 0.000142 0.000850 0.000063 6.608185 4.318498 3.576637 128.764799 65.036772 149.054653 5.407492 13.572176 3.762996 0.000738 -0.004199 0.000327
-15.125371 126.899196 22.103428 -168.538853 -48.377145 -5.292881 -2.495161 25.387320 -2.497279 -0.319632 4.112661 -0.329584 -0.527210 6.564174 -0.556579 -1.917738 20.974126 -1.900857 0.639070 20.902403 1.807218 0.269682 -3.498431 1.782803 3.231614 4.970954 3.381845 -28.730180 -22.988411 -13.470410 -148.937650 -49.930455 176.397696 4.766845 -3.901454 -14.048870 -7.944719 -0.933548 -1.478087 -12.037131 -10.956702 13.746473 70.556161 -60.412003 -116.735531 -6.470268 -28.114670 30.747046 -5.244584 -23.454945 -2.333315 -3.895924 78.021451 -2.125031 10.213330 -12.850265 2.201924 -0.000448 -0.000655 -0.000198 6.610781 4.317648 3.565107 128.771181 65.038063 149.060653 5.409882 13.562110 3.736308 0.001175 -0.004511 0.000520
-15.123258 126.899670 22.102945 -168.546586 -48.376399 -5.283167 -2.490539 25.387363 -2.483214 -0.320983 4.111837 -0.337841 -0.519943 6.563503 -0.521417 -1.914085 20.970823 -1.875951 0.648478 20.872262 1.754903 0.324881 -3.557398 1.727770 3.202987 4.972926 3.335768 -28.484332 -22.921300 -13.575060 -148.803493 -50.005842 176.372566 4.838143 -3.849504 -13.882198 -7.970727 -0.965045 -1.468795 -12.051083 -10.952624 13.744798 70.568162 -60.438714 -116.742567 -6.440019 -28.132166 30.736364 -5.239496 -23.456963 -2.335820 -3.926188 78.027921 -2.154764 10.209377 -12.873270 2.203411 -0.001366 -0.001508 -0.000605 6.609778 4.327705 3.561793 128.773591 65.042016 149.056943 5.414407 13.556396 3.718961 0.000591 -0.000945 0.000262
-15.121344 126.900011 22.102877 -168.553211 -48.376324 -5.273153 -2.487043 25.387268 -2.469531 -0.318353 4.111297 -0.314910 -0.520006 6.561814 -0.514714 -1.914155 20.966313 -1.854174 0.618507 20.867006 1.693115 0.401674 -3.632764 1.682105 3.189059 4.948524 3.336682 -28.252027 -22.871325 -13.721484 -148.652995 -50.089940 176.342359 4.896661 -3.803505 -13.735115 -7.995479 -0.994303 -1.460845 -12.064472 -10.945949 13.740744 70.574754 -60.487138 -116.749965 -6.448292 -28.110054 30.683624 -5.235535 -23.459534 -2.340151 -3.933115 78.035597 -2.163826 10.209940 -12.893654 2.206163 -0.001038 -0.002460 -0.000460 6.609109 4.333357 3.557885 128.773084 65.041695 149.050942 5.418220 13.556356 3.695544 -0.000924 0.003271 -0.000409
-15.120311 126.900161 22.103356 -168.569529 -48.377541 -5.250801 -2.481090 25.386267 -2.443395 -0.318204 4.109715 -0.310807 -0.517161 6.551316 -0.462426 -1.947131 20.972598 -1.918227 0.705698 20.795156 1.710295 0.376049 -3.639991 1.640217 3.204617 4.886478 3.428621 -28.025486 -22.837797 -13.923504 -148.483831 -50.180471 176.307856 4.958470 -3.763123 -13.617804 -8.009211 -1.022602 -1.420046 -12.076076 -10.936439 13.731770 70.597945 -60.489591 -116.765519 -6.481813 -28.064525 30.622121 -5.221741 -23.461712 -2.352804 -3.965283 78.042641 -2.197530 10.227649 -12.913710 2.208409 0.000168 -0.001889 0.000074 6.607670 4.348683 3.542080 128.761758 65.043031 149.025163 5.418767 13.533108 3.720399 -0.002588 0.002933 -0.001147
-15.118823 126.900151 22.104237 -168.582121 -48.378998 -5.234296 -2.483701 25.376654 -2.394153 -0.320552 4.105567 -0.295492 -0.520588 6.554628 -0.495869 -1.952943 20.976841 -1.930122 0.737816 20.757535 1.710228 0.391085 -3.673850 1.612202 3.202447 4.858697 3.460062 -27.822584 -22.819729 -14.037142 -148.299789 -50.272526 176.269156 5.026791 -3.731876 -13.534514 -8.021871 -1.044782 -1.396780 -12.095036 -10.927342 13.738494 70.640455 -60.451756 -116.785572 -6.513159 -28.013541 30.561850 -5.212166 -23.462612 -2.361380 -3.979304 78.046433 -2.214616 10.242463 -12.928569 2.210897 0.000804 -0.001464 0.000356 6.610345 4.357587 3.532210 128.760215 65.044861 149.016641 5.420599 13.513098 3.747750 -0.001855 0.000666 -0.000822
-15.117450 126.900390 22.105165 -168.597847 -48.384794 -5.215543 -2.486119 25.374562 -2.374639 -0.321307 4.104009 -0.291869 -0.521683 6.552352 -0.490215 -1.947643 20.972478 -1.911608 0.712559 20.760603 1.657093 0.434894 -3.734240 1.609684 3.188091 4.843946 3.463840 -27.631624 -22.816379 -14.135378 -148.107860 -50.364758 176.231355 5.092584 -3.713976 -13.485813 -8.037574 -1.047699 -1.438056 -12.130476 -10.922953 13.783384 70.654892 -60.473360 -116.780489 -6.496990 -28.005899 30.515166 -5.213635 -23.461514 -2.367820 -3.976035 78.051467 -2.222681 10.253842 -12.936098 2.209258 0.000108 -0.000952 0.000048 6.615162 4.367925 3.522846 128.757973 65.048944 149.013525 5.418170 13.507859 3.755334 0.001195 -0.001220 0.000529
-15.115845 126.900758 22.106192 -168.626461 -48.394206 -5.189128 -2.484073 25.371569 -2.347541 -0.318471 4.107231 -0.305291 -0.525171 6.547590 -0.474835 -1.943678 20.964083 -1.846615 0.730318 20.713621 1.623427 0.419761 -3.736248 1.568715 3.170380 4.853547 3.386906 -27.462895 -22.825375 -14.184212 -147.907947 -50.460109 176.193909 5.149252 -3.711133 -13.469939 -8.062121 -1.096469 -1.425057 -12.133749 -10.896758 13.716943 70.631220 -60.532476 -116.757090 -6.462000 -28.033505 30.500763 -5.200207 -23.457400 -2.376350 -3.957729 78.054629 -2.204845 10.261297 -12.939699 2.202589 0.001727 -0.000164 0.000765 6.631537 4.378415 3.517648 128.757339 65.048800 149.011977 5.417025 13.503264 3.755590 0.003040 -0.001597 0.001347
-15.114123 126.901250 22.107276 -168.636274 -48.405283 -5.177825 -2.491288 25.369547 -2.325018 -0.312325 4.116338 -0.329464 -0.532673 6.537027 -0.440635 -1.950438 20.960586 -1.813020 0.741416 20.684080 1.604214 0.404916 -3.723972 1.526681 3.166628 4.835164 3.383337 -27.281279 -22.847080 -14.282640 -147.701927 -50.559746 176.152258 5.190690 -3.723840 -13.480292 -8.074044 -1.126723 -1.424641 -12.148217 -10.879661 13.695753 70.631503 -60.531309 -116.745530 -6.450793 -28.056032 30.502573 -5.201384 -23.449335 -2.382816 -3.933568 78.055040 -2.186509 10.269894 -12.938904 2.199932 0.002154 0.000235 0.000954 6.635172 4.390817 3.513735 128.760399 65.049891 149.012058 5.424208 13.500425 3.751497 0.003763 -0.001284 0.001667
-15.112558 126.901566 22.108654 -168.643904 -48.416505 -5.167012 -2.499427 25.368709 -2.303916 -0.314157 4.113593 -0.324561 -0.533934 6.540084 -0.446653 -1.956199 20.962927 -1.816563 0.759821 20.658780 1.625507 0.425144 -3.764047 1.518456 3.168197 4.800990 3.430508 -27.098808 -22.874210 -14.382253 -147.494101 -50.659599 176.104939 5.212738 -3.746599 -13.510919 -8.085743 -1.147530 -1.392263 -12.143667 -10.870531 13.661066 70.578076 -60.570323 -116.710813 -6.447944 -28.050056 30.478083 -5.202542 -23.441177 -2.388616 -3.934308 78.055994 -2.188534 10.260485 -12.937893 2.194555 0.001448 0.000699 0.000642 6.631412 4.407122 3.505538 128.761577 65.050295 149.002778 5.432462 13.489862 3.772578 0.005008 -0.001140 0.002219
-15.111505 126.901872 22.110155 -168.653533 -48.429323 -5.151436 -2.504540 25.373773 -2.294296 -0.318993 4.107639 -0.311382 -0.529694 6.548701 -0.473478 -1.959059 20.959584 -1.796637 0.777344 20.638432 1.646735 0.440545 -3.801848 1.516963 3.170418 4.772665 3.464225 -26.912809 -22.904307 -14.467451 -147.288653 -50.755870 176.049640 5.216111 -3.774482 -13.555430 -8.096953 -1.163726 -1.359658 -12.135398 -10.866431 13.628309 70.573003 -60.565465 -116.704716 -6.456285 -28.007043 30.433002 -5.194529 -23.431327 -2.398650 -3.965983 78.056551 -2.216661 10.249296 -12.940056 2.191290 0.001125 0.001156 0.000498 6.634136 4.421495 3.497235 128.773865 65.055499 149.002248 5.453763 13.493901 3.777506 0.000960 0.000876 0.000425
-15.110218 126.901830 22.111978 -168.660485 -48.440064 -5.138602 -2.505527 25.381866 -2.296949 -0.333957 4.094419 -0.251268 -0.528222 6.557620 -0.503454 -1.963554 20.960923 -1.779743 0.779597 20.618457 1.639811 0.445087 -3.823771 1.510160 3.169084 4.742395 3.473750 -26.717050 -22.936362 -14.558003 -147.082675 -50.845078 175.982996 5.206176 -3.805960 -13.602516 -8.111552 -1.180984 -1.353472 -12.147439 -10.866506 13.628452 70.535769 -60.572843 -116.673779 -6.450057 -28.018442 30.426771 -5.197973 -23.424611 -2.410188 -3.944546 78.056789 -2.203404 10.261488 -12.940604 2.191498 0.001320 0.001130 0.000585 6.631050 4.436421 3.485343 128.769274 65.055510 148.987465 5.463639 13.494878 3.779779 -0.002254 0.003589 -0.000999
